<svg xmlns="http://www.w3.org/2000/svg" width="32" height="32" viewBox="0 0 32 32">
  <path fill="#059669" d="M16 2C8.268 2 2 8.268 2 16s6.268 14 14 14 14-6.268 14-14S23.732 2 16 2zm0 25.2c-6.182 0-11.2-5.018-11.2-11.2S9.818 4.8 16 4.8s11.2 5.018 11.2 11.2-5.018 11.2-11.2 11.2z"/>
  <path fill="#059669" d="M16 7c-4.418 0-8 3.582-8 8 0 3.438 2.167 6.37 5.2 7.488.267.098.551.15.843.15 1 0 1.886-.634 2.212-1.578.326-.944.042-1.986-.708-2.596-.301-.244-.478-.609-.478-1.002 0-.696.564-1.262 1.26-1.262h1.342c2.209 0 4-1.791 4-4C21.67 8.837 19.071 7 16 7z"/>
</svg>